<svg width="45" height="45" viewBox="0 0 45 45" fill="none" xmlns="http://www.w3.org/2000/svg">
<rect width="45" height="45" rx="22.5" fill="white"/>
<mask id="mask0_3223_4599" style="mask-type:luminance" maskUnits="userSpaceOnUse" x="8" y="10" width="31" height="25">
<path d="M35.1055 28.6116V31.9747H31.8859C30.5055 31.8661 29.1836 30.8358 29.0064 29.5201H29.002V21.6586H28.9869C28.9869 19.3819 28.2665 17.2642 27.1194 15.4937C26.8655 15.0876 26.5822 14.7039 26.2744 14.3428C26.1556 14.1993 26.0343 14.0589 25.91 13.9219C26.6002 13.7354 27.3286 13.6337 28.0857 13.6337C28.3067 13.6337 28.5249 13.6446 28.7413 13.6617C31.861 14.2172 34.3383 16.5888 35.0037 19.6263L35.1055 28.6116ZM18.1299 16.9689C17.4665 18.2609 17.0573 19.6946 17.0573 21.2048C17.0573 21.273 17.0586 21.3413 17.0599 21.4091C17.0531 21.5795 17.0492 21.7509 17.0492 21.9235C17.0492 22.1815 17.0588 22.437 17.0761 22.6907L17.0279 29.5201H17.0271C16.8397 30.9115 15.506 31.9857 14.0425 31.9857C12.579 31.9857 11.1112 30.9115 10.9239 29.5201V13.603H11.2142H18.4891H19.0317C19.5068 13.6472 19.9689 13.7349 20.4152 13.8603C19.4691 14.7307 18.6958 15.7804 18.1299 16.9689ZM34.8149 13.603C32.9262 11.8192 30.3633 10.7225 27.5403 10.7225C25.9199 10.7225 24.3852 11.0845 23.0145 11.7295C21.6438 11.0845 20.1092 10.7225 18.4891 10.7225H10.9239H8V13.603V29.5201C8.17998 32.5759 10.8958 35 14.0425 35C17.1515 35 19.6973 32.6326 19.9308 29.6279H19.9508V28.3191L20.1033 20.0721C20.5221 18.1183 21.6209 16.4251 23.157 15.2663C24.6337 16.4476 25.6577 18.1551 25.9358 20.0996L26.0133 29.4239C26.0353 29.3998 26.0566 29.3755 26.0785 29.351V29.6279H26.0919C26.2979 32.2381 28.3523 34.3657 30.9269 34.8798V34.9519H31.3826C31.6032 34.9786 31.8267 34.9953 32.0526 34.998V34.9519H35.1055H38.029V31.9747L38.0598 22.0659V19.6035C37.8202 18.1802 37.2908 16.8541 36.5345 15.6842C36.1022 14.9619 35.5257 14.3002 34.9415 13.6974C34.9415 13.6974 34.8573 13.6431 34.8149 13.603Z" fill="white"/>
</mask>
<g mask="url(#mask0_3223_4599)">
<path d="M35.1055 28.6116V31.9747H31.8859C30.5055 31.8661 29.1836 30.8358 29.0064 29.5201H29.002V21.6586H28.9869C28.9869 19.3819 28.2665 17.2642 27.1194 15.4937C26.8655 15.0876 26.5822 14.7039 26.2744 14.3428C26.1556 14.1993 26.0343 14.0589 25.91 13.9219C26.6002 13.7354 27.3286 13.6337 28.0857 13.6337C28.3067 13.6337 28.5249 13.6446 28.7413 13.6617C31.861 14.2172 34.3383 16.5888 35.0037 19.6263L35.1055 28.6116ZM18.1299 16.9689C17.4665 18.2609 17.0573 19.6946 17.0573 21.2048C17.0573 21.2731 17.0586 21.3413 17.0599 21.4091C17.0531 21.5795 17.0492 21.7509 17.0492 21.9235C17.0492 22.1815 17.0588 22.437 17.0761 22.6907L17.0279 29.5201H17.0271C16.8397 30.9116 15.506 31.9857 14.0425 31.9857C12.579 31.9857 11.1112 30.9116 10.9239 29.5201V13.603H11.2142H18.4891H19.0317C19.5068 13.6472 19.9689 13.7349 20.4152 13.8603C19.4691 14.7308 18.6958 15.7804 18.1299 16.9689ZM34.8149 13.603C32.9262 11.8192 30.3633 10.7225 27.5403 10.7225C25.9199 10.7225 24.3852 11.0845 23.0145 11.7295C21.6438 11.0845 20.1092 10.7225 18.4891 10.7225H10.9239H8V13.603V29.5201C8.17998 32.5759 10.8958 35 14.0425 35C17.1515 35 19.6973 32.6326 19.9308 29.6279H19.9508V28.3191L20.1033 20.0721C20.5221 18.1183 21.6209 16.4251 23.157 15.2663C24.6337 16.4476 25.6577 18.1551 25.9358 20.0996L26.0133 29.4239C26.0353 29.3998 26.0566 29.3755 26.0785 29.351V29.6279H26.0919C26.2979 32.2382 28.3523 34.3657 30.9269 34.8798V34.9519H31.3826C31.6032 34.9786 31.8267 34.9954 32.0526 34.998V34.9519H35.1055H38.029V31.9747L38.0598 22.0659V19.6035C37.8202 18.1802 37.2908 16.8541 36.5345 15.6842C36.1022 14.9619 35.5257 14.3002 34.9415 13.6974C34.9415 13.6974 34.8573 13.6431 34.8149 13.603Z" fill="url(#paint0_linear_3223_4599)"/>
</g>
<defs>
<linearGradient id="paint0_linear_3223_4599" x1="39.0349" y1="36.1646" x2="9.543" y2="13.0564" gradientUnits="userSpaceOnUse">
<stop stop-color="#6ECEBD"/>
<stop offset="1" stop-color="#5A7FC9"/>
</linearGradient>
</defs>
</svg>
