<svg width="116" height="36" viewBox="0 0 116 36" fill="none" xmlns="http://www.w3.org/2000/svg">
<mask id="mask0_3086_20569" style="mask-type:luminance" maskUnits="userSpaceOnUse" x="4" y="4" width="35" height="29">
<path d="M35.0706 25.0376V28.8779H31.3942C29.818 28.7538 28.3085 27.5774 28.1062 26.075H28.1012V17.098H28.0839C28.0839 14.4982 27.2613 12.0799 25.9513 10.0582C25.6615 9.59451 25.338 9.15636 24.9865 8.74406C24.8509 8.58019 24.7122 8.41985 24.5704 8.26337C25.3585 8.05042 26.1903 7.93435 27.0548 7.93435C27.3071 7.93435 27.5563 7.94677 27.8034 7.96628C31.3658 8.60055 34.1946 11.3087 34.9544 14.7773L35.0706 25.0376ZM15.6863 11.7428C14.9287 13.2181 14.4615 14.8552 14.4615 16.5797C14.4615 16.6577 14.463 16.7356 14.4644 16.813C14.4567 17.0076 14.4522 17.2034 14.4522 17.4004C14.4522 17.695 14.4631 17.9868 14.4829 18.2765L14.4279 26.075H14.427C14.2131 27.6639 12.69 28.8905 11.0189 28.8905C9.34768 28.8905 7.67166 27.6639 7.45771 26.075V7.89928H7.78928H16.0964H16.716C17.2585 7.94977 17.7863 8.04987 18.2958 8.19306C17.2155 9.18702 16.3325 10.3856 15.6863 11.7428ZM34.7389 7.89928C32.5822 5.86229 29.6556 4.60998 26.4319 4.60998C24.5817 4.60998 22.8292 5.02337 21.264 5.75988C19.6987 5.02337 17.9465 4.60998 16.0964 4.60998H7.45771H4.11896V7.89928V26.075C4.32448 29.5644 7.42567 32.3325 11.0189 32.3325C14.5691 32.3325 17.4761 29.6291 17.7427 26.1981H17.7656V24.7036L17.9396 15.2863C18.4179 13.0553 19.6726 11.1218 21.4267 9.79862C23.113 11.1474 24.2823 13.0973 24.5998 15.3177L24.6883 25.9651C24.7135 25.9376 24.7377 25.9098 24.7627 25.8818V26.1981H24.778C25.0132 29.1787 27.3592 31.6082 30.2992 32.1951V32.2775H30.8195C31.0714 32.308 31.3266 32.3271 31.5846 32.3302V32.2775H35.0706H38.409V28.8779L38.4443 17.563V14.7512C38.1706 13.126 37.5661 11.6117 36.7024 10.2758C36.2088 9.451 35.5506 8.69535 34.8835 8.00701C34.8835 8.00701 34.7873 7.945 34.7389 7.89928Z" fill="white"/>
</mask>
<g mask="url(#mask0_3086_20569)">
<path d="M35.0706 25.0376V28.8779H31.3942C29.818 28.7538 28.3085 27.5774 28.1062 26.075H28.1012V17.098H28.0839C28.0839 14.4982 27.2613 12.0799 25.9513 10.0582C25.6615 9.59451 25.338 9.15636 24.9865 8.74406C24.8509 8.58019 24.7122 8.41985 24.5704 8.26337C25.3585 8.05042 26.1903 7.93435 27.0548 7.93435C27.3071 7.93435 27.5563 7.94677 27.8034 7.96628C31.3658 8.60055 34.1946 11.3087 34.9544 14.7773L35.0706 25.0376ZM15.6863 11.7428C14.9287 13.2181 14.4615 14.8552 14.4615 16.5797C14.4615 16.6577 14.463 16.7356 14.4644 16.813C14.4567 17.0076 14.4522 17.2034 14.4522 17.4004C14.4522 17.695 14.4631 17.9868 14.4829 18.2765L14.4279 26.075H14.427C14.2131 27.6639 12.69 28.8905 11.0189 28.8905C9.34768 28.8905 7.67166 27.6639 7.45771 26.075V7.89928H7.78928H16.0964H16.716C17.2585 7.94977 17.7863 8.04987 18.2958 8.19306C17.2155 9.18702 16.3325 10.3856 15.6863 11.7428ZM34.7389 7.89928C32.5822 5.86229 29.6556 4.60998 26.4319 4.60998C24.5817 4.60998 22.8292 5.02337 21.264 5.75988C19.6987 5.02337 17.9465 4.60998 16.0964 4.60998H7.45771H4.11896V7.89928V26.075C4.32448 29.5644 7.42567 32.3325 11.0189 32.3325C14.5691 32.3325 17.4761 29.6291 17.7427 26.1981H17.7656V24.7036L17.9396 15.2863C18.4179 13.0553 19.6726 11.1218 21.4267 9.79862C23.113 11.1474 24.2823 13.0973 24.5998 15.3177L24.6883 25.9651C24.7135 25.9376 24.7377 25.9098 24.7627 25.8818V26.1981H24.778C25.0132 29.1787 27.3592 31.6082 30.2992 32.1951V32.2775H30.8195C31.0714 32.308 31.3266 32.3271 31.5846 32.3302V32.2775H35.0706H38.409V28.8779L38.4443 17.563V14.7512C38.1706 13.126 37.5661 11.6117 36.7024 10.2758C36.2088 9.451 35.5506 8.69535 34.8835 8.00701C34.8835 8.00701 34.7873 7.945 34.7389 7.89928Z" fill="url(#paint0_linear_3086_20569)"/>
</g>
<path d="M48.3513 10.1071C48.1768 10.1071 47.9273 10.111 47.6028 10.119C47.2783 10.1269 46.9027 10.1694 46.475 10.2474V19.9349C46.475 20.1067 46.4433 20.2159 46.3798 20.2626C46.3167 20.3092 46.1979 20.3326 46.0237 20.3326H44.1714C44.013 20.3326 43.8983 20.3092 43.8271 20.2626C43.7559 20.2159 43.7203 20.1067 43.7203 19.9349V9.91961C43.7203 9.3585 43.8226 8.92157 44.0283 8.60938C44.2335 8.29755 44.66 8.08709 45.308 7.97774C45.4655 7.96218 45.6786 7.93877 45.9472 7.90725C46.2159 7.87623 46.5004 7.85287 46.8005 7.83727C47.1006 7.82185 47.3929 7.80624 47.6774 7.79032C47.9614 7.7749 48.2063 7.76692 48.4116 7.76692C49.4547 7.76692 50.3587 7.87623 51.1252 8.09471C51.8911 8.31297 52.5227 8.66023 53.0203 9.13598C53.5179 9.61187 53.8857 10.2318 54.1223 10.9963C54.3594 11.7608 54.4781 12.6809 54.4781 13.7572V19.9349C54.4781 20.1067 54.4464 20.2159 54.3838 20.2626C54.3207 20.3092 54.2029 20.3326 54.0302 20.3326H52.1706C52.0136 20.3326 51.8994 20.3092 51.829 20.2626C51.7586 20.2159 51.7231 20.1067 51.7231 19.9349V13.7108C51.7231 13.1021 51.6716 12.572 51.5689 12.1193C51.4658 11.6669 51.2877 11.2927 51.0345 10.9963C50.7809 10.7001 50.4365 10.4777 50.0015 10.3292C49.5661 10.1813 49.016 10.1071 48.3513 10.1071Z" fill="#032886"/>
<path d="M59.9375 15.8926H63.3038L62.3919 12.9904L61.6559 10.5371H61.568L60.8494 12.9387L59.9375 15.8926ZM63.8649 17.6897H59.4114L58.6403 20.039C58.6049 20.1427 58.5552 20.2175 58.4912 20.2635C58.4268 20.3096 58.3246 20.3326 58.1842 20.3326H56.5712C56.4423 20.3326 56.3608 20.2954 56.3259 20.2201C56.2909 20.1459 56.2909 20.0621 56.3259 19.97L60.1129 9.03411C60.1714 8.86152 60.2298 8.72314 60.2883 8.61968C60.3467 8.51586 60.4195 8.43575 60.5074 8.37783C60.5948 8.32005 60.697 8.27718 60.8144 8.24829C60.9309 8.21963 61.0713 8.20489 61.2351 8.20489H61.9891C62.351 8.20489 62.6083 8.25981 62.7602 8.36931C62.9121 8.47862 63.0465 8.7001 63.1634 9.03411L66.9679 19.97C67.0034 20.0621 67.0061 20.1459 66.9767 20.2201C66.9477 20.2954 66.869 20.3326 66.7401 20.3326H65.1271C64.9987 20.3326 64.8961 20.3185 64.8206 20.2892C64.7441 20.2609 64.6829 20.1829 64.6364 20.0562L63.8649 17.6897Z" fill="#032886"/>
<path d="M72.894 18.0869H72.9994L73.8059 15.3744L76.1029 8.4641C76.1379 8.34894 76.1871 8.27986 76.2516 8.25682C76.316 8.23378 76.4062 8.22226 76.5236 8.22226H78.1891C78.2825 8.22226 78.3382 8.24829 78.3557 8.30023C78.3732 8.35193 78.37 8.41221 78.3469 8.48129L74.472 19.538C74.367 19.8489 74.2414 20.0562 74.095 20.1599C73.9486 20.2635 73.7359 20.3211 73.4551 20.3326H72.5087C72.2045 20.3326 71.9734 20.2841 71.816 20.1858C71.6581 20.0881 71.5149 19.872 71.3865 19.538L67.529 8.48129C67.5055 8.41221 67.5055 8.35193 67.529 8.30023C67.5525 8.24829 67.6105 8.22226 67.7044 8.22226H69.3878C69.5162 8.22226 69.6069 8.24262 69.6594 8.28285C69.7118 8.32327 69.7496 8.38917 69.7735 8.48129L72.0176 15.34L72.894 18.0869Z" fill="#032886"/>
<path d="M83.9398 13.7851L85.2899 11.0557L86.605 8.49866C86.663 8.39502 86.7187 8.32327 86.7712 8.28285C86.8242 8.24262 86.9084 8.22226 87.0258 8.22226H88.7262C88.8316 8.22226 88.8896 8.24829 88.9016 8.30023C88.9131 8.35193 88.9076 8.40654 88.8841 8.4641L84.9566 15.6681V20.0217C84.9566 20.1484 84.9332 20.2322 84.8867 20.272C84.8397 20.3128 84.7523 20.3326 84.6234 20.3326H83.1683C83.0514 20.3326 82.9667 20.3128 82.9142 20.272C82.8613 20.2322 82.835 20.1484 82.835 20.0217V15.6853L78.8202 8.48129C78.7967 8.42373 78.7967 8.36631 78.8202 8.30853C78.8436 8.25115 78.9016 8.22226 78.9955 8.22226H80.7664C80.8948 8.22226 80.9855 8.24262 81.038 8.28285C81.0909 8.32327 81.1461 8.40119 81.2046 8.51586L82.5722 11.1593L83.8523 13.7851H83.9398Z" fill="#032886"/>
<path d="M99.9819 18.6571C99.9819 19.0947 99.8825 19.4574 99.6841 19.7455C99.4852 20.0332 99.1229 20.2292 98.5968 20.3326C98.3749 20.3787 98.1379 20.4132 97.887 20.4363C97.6352 20.4593 97.3871 20.4797 97.1417 20.4971C96.8964 20.5144 96.6625 20.5254 96.4402 20.5316C96.2183 20.5369 96.0195 20.5399 95.8441 20.5399C94.8627 20.5399 94.0235 20.4505 93.3285 20.272C92.6329 20.094 92.0686 19.7972 91.6363 19.3826C91.2036 18.968 90.8883 18.4153 90.6899 17.7242C90.4906 17.0327 90.3916 16.1754 90.3916 15.1499L90.3741 8.60231C90.3741 8.45295 90.4091 8.35462 90.4791 8.30853C90.5491 8.2625 90.6485 8.23945 90.7774 8.23945H92.145C92.3084 8.23945 92.4166 8.25982 92.4691 8.30023C92.522 8.34047 92.5482 8.44107 92.5482 8.60231V15.1844C92.5482 15.7717 92.592 16.2847 92.6794 16.7218C92.7673 17.1599 92.9307 17.5228 93.1706 17.8105C93.4099 18.0984 93.7432 18.3142 94.1699 18.4583C94.5962 18.6025 95.1545 18.6743 95.8441 18.6743C96.0195 18.6743 96.297 18.6654 96.6768 18.6482C97.057 18.6309 97.4515 18.5821 97.8607 18.5017V8.60231C97.8607 8.45295 97.8925 8.35462 97.957 8.30853C98.0209 8.2625 98.1236 8.23945 98.264 8.23945H99.6311C99.795 8.23945 99.8944 8.25982 99.9294 8.30023C99.9644 8.34047 99.9819 8.44107 99.9819 8.60231V18.6571Z" fill="#032886"/>
<path d="M107.854 18.6225C107.936 18.6225 108.053 18.6199 108.205 18.6137C108.356 18.6078 108.52 18.5963 108.696 18.5791C108.871 18.5617 109.058 18.53 109.257 18.4835C109.456 18.4374 109.649 18.3793 109.835 18.3098V15.0462C109.765 15.035 109.692 15.0289 109.616 15.0289C109.54 15.0289 109.461 15.0289 109.38 15.0289C108.643 15.0289 107.889 15.1906 107.118 15.5126C106.978 15.5707 106.875 15.602 106.811 15.6079C106.747 15.6135 106.685 15.5586 106.627 15.4434L106.224 14.3552C106.177 14.2631 106.163 14.1855 106.18 14.1222C106.198 14.0588 106.259 13.9982 106.364 13.9406C106.761 13.7103 107.235 13.5261 107.784 13.3879C108.333 13.2497 108.877 13.1806 109.415 13.1806C109.718 13.1806 109.967 13.1889 110.16 13.2062C110.353 13.2234 110.543 13.2497 110.73 13.2842C111.244 13.3763 111.592 13.5491 111.773 13.8024C111.954 14.0558 112.044 14.4474 112.044 14.9771V19.0026C112.044 19.1408 112.021 19.2589 111.975 19.3564C111.928 19.4547 111.84 19.5438 111.712 19.6245C111.384 19.8202 111.025 19.9783 110.633 20.0993C110.241 20.2201 109.856 20.3128 109.476 20.376C109.096 20.4389 108.745 20.4797 108.424 20.497C108.102 20.5144 107.843 20.5228 107.644 20.5228C105.867 20.5228 104.526 20.0102 103.62 18.9852C102.714 17.9602 102.261 16.4282 102.261 14.3898C102.261 13.4339 102.384 12.567 102.63 11.7897C102.875 11.0123 103.234 10.347 103.708 9.79416C104.181 9.24139 104.76 8.81581 105.444 8.51586C106.128 8.21641 106.908 8.06669 107.784 8.06669C108.321 8.06669 108.886 8.11277 109.476 8.20489C110.066 8.29705 110.648 8.493 111.221 8.79227C111.314 8.8383 111.376 8.89323 111.405 8.95668C111.434 9.01991 111.407 9.13208 111.326 9.29328L110.852 10.3643C110.794 10.4799 110.741 10.5516 110.695 10.5805C110.648 10.6092 110.56 10.6009 110.432 10.5543C110.046 10.4051 109.631 10.2867 109.187 10.2004C108.743 10.114 108.292 10.0706 107.837 10.0706C107.229 10.0706 106.712 10.1893 106.285 10.4258C105.858 10.6625 105.513 10.9795 105.251 11.3778C104.988 11.7759 104.795 12.2406 104.672 12.7713C104.549 13.3023 104.488 13.8559 104.488 14.4332C104.488 15.0218 104.538 15.5728 104.637 16.0862C104.736 16.6001 104.911 17.0442 105.163 17.4195C105.414 17.7946 105.759 18.0887 106.198 18.3022C106.636 18.5157 107.188 18.6225 107.854 18.6225Z" fill="#032886"/>
<path d="M45.9276 29.0883C45.9631 29.0883 46.0134 29.0871 46.0792 29.0843C46.1445 29.0821 46.215 29.0772 46.2905 29.0697C46.3659 29.0621 46.4465 29.0485 46.5321 29.0285C46.6177 29.0086 46.7011 28.9833 46.7816 28.9537V27.5469C46.7512 27.5419 46.7199 27.5393 46.6873 27.5393C46.6546 27.5393 46.6205 27.5393 46.5851 27.5393C46.2679 27.5393 45.9429 27.6089 45.6103 27.748C45.5499 27.7728 45.5058 27.7864 45.4781 27.7888C45.4502 27.7914 45.424 27.768 45.3988 27.7182L45.2251 27.2492C45.2048 27.2094 45.1985 27.1757 45.2062 27.1486C45.2136 27.1211 45.2402 27.0951 45.2855 27.0703C45.4565 26.9711 45.6607 26.8917 45.8976 26.832C46.1344 26.7726 46.3683 26.7425 46.6003 26.7425C46.7314 26.7425 46.8382 26.7464 46.9216 26.754C47.0044 26.7611 47.0863 26.7726 47.1669 26.7872C47.3888 26.8271 47.5384 26.9014 47.6166 27.0109C47.6949 27.1199 47.734 27.2886 47.734 27.5172V29.2522C47.734 29.3116 47.7239 29.3624 47.7036 29.4046C47.6834 29.4471 47.6456 29.4852 47.5904 29.5201C47.4491 29.6043 47.2944 29.6725 47.1255 29.7247C46.9565 29.777 46.7904 29.8169 46.6265 29.844C46.4631 29.8709 46.3116 29.8887 46.1735 29.8963C46.0345 29.9037 45.9228 29.9073 45.837 29.9073C45.0714 29.9073 44.4933 29.6863 44.1029 29.2446C43.7124 28.8025 43.5171 28.1426 43.5171 27.2638C43.5171 26.8519 43.5701 26.4785 43.6757 26.1432C43.7816 25.8083 43.9364 25.5213 44.1407 25.2835C44.3448 25.0452 44.594 24.8613 44.8887 24.7325C45.1834 24.6031 45.5198 24.5385 45.8976 24.5385C46.1293 24.5385 46.3724 24.5583 46.6265 24.5982C46.881 24.6382 47.1319 24.7222 47.3786 24.8512C47.4192 24.871 47.4454 24.8949 47.4583 24.922C47.4703 24.9495 47.4592 24.9977 47.4238 25.0673L47.2203 25.5289C47.1945 25.5785 47.172 25.6098 47.1522 25.6219C47.1319 25.6347 47.0942 25.6308 47.0385 25.6107C46.8723 25.5466 46.6932 25.4955 46.5022 25.4585C46.3102 25.4212 46.1169 25.4022 45.9203 25.4022C45.6583 25.4022 45.4353 25.4535 45.2514 25.5555C45.0676 25.6573 44.9189 25.7941 44.8056 25.9656C44.6921 26.1375 44.6091 26.3377 44.5562 26.5662C44.5034 26.7952 44.4769 27.034 44.4769 27.2824C44.4769 27.5363 44.4982 27.7737 44.5411 27.9952C44.5839 28.2166 44.6593 28.408 44.7677 28.5696C44.8761 28.7313 45.0248 28.858 45.2136 28.9501C45.4026 29.0423 45.6407 29.0883 45.9276 29.0883Z" fill="#032886"/>
<path d="M48.7389 24.762C48.7389 24.6974 48.7527 24.6554 48.7803 24.6354C48.8079 24.6155 48.8521 24.6058 48.9124 24.6058H49.4791C49.55 24.6058 49.5978 24.6141 49.6227 24.6318C49.648 24.6492 49.6604 24.6926 49.6604 24.762V28.4925C49.6604 28.6862 49.7097 28.8226 49.8082 28.902C49.9063 28.9815 50.0407 29.021 50.2124 29.021H52.2373C52.293 29.021 52.3284 29.0311 52.3432 29.0511C52.3584 29.071 52.3662 29.1082 52.3662 29.1628V29.6842C52.3662 29.7336 52.3584 29.7696 52.3432 29.7917C52.3284 29.8142 52.293 29.8254 52.2373 29.8254H50.0687C49.8068 29.8254 49.59 29.7882 49.4188 29.7138C49.2475 29.6394 49.1113 29.5401 49.0109 29.4158C48.9097 29.2916 48.8397 29.1503 48.7992 28.9913C48.7587 28.8327 48.7389 28.6662 48.7389 28.4925V24.762Z" fill="#032886"/>
<path d="M56.3636 27.2266C56.3636 26.9785 56.3447 26.7416 56.307 26.5157C56.2692 26.2898 56.2011 26.09 56.1031 25.916C56.005 25.7424 55.8688 25.6045 55.6952 25.5026C55.5212 25.4013 55.2984 25.3503 55.0264 25.3503C54.7944 25.3503 54.5928 25.3987 54.422 25.4955C54.2503 25.5921 54.108 25.725 53.9948 25.8938C53.8816 26.0625 53.7969 26.2574 53.7416 26.4785C53.6859 26.6991 53.6583 26.936 53.6583 27.1895C53.6583 27.4773 53.6799 27.7383 53.7228 27.9712C53.7656 28.2046 53.8397 28.4044 53.9456 28.5704C54.0514 28.737 54.1914 28.8646 54.3649 28.954C54.5389 29.0437 54.7543 29.0883 55.0112 29.0883C55.268 29.0883 55.4835 29.0361 55.6575 28.9321C55.831 28.8273 55.9709 28.6897 56.0768 28.5187C56.1822 28.3472 56.2568 28.1502 56.2996 27.9266C56.3424 27.7032 56.3636 27.4699 56.3636 27.2266ZM57.316 27.197C57.316 28.0607 57.1231 28.7282 56.7378 29.2C56.3526 29.6716 55.7693 29.9073 54.9886 29.9073C54.2277 29.9073 53.6583 29.6801 53.2809 29.226C52.9029 28.7716 52.7137 28.1054 52.7137 27.2266C52.7137 26.7996 52.7704 26.4201 52.8841 26.0873C52.9973 25.7548 53.1561 25.473 53.36 25.2422C53.5639 25.0115 53.8056 24.8352 54.0855 24.7133C54.3649 24.5919 54.6733 24.5313 55.0112 24.5313C55.3891 24.5313 55.7228 24.5919 56.0124 24.7133C56.3019 24.8352 56.5427 25.0115 56.7342 25.2422C56.9256 25.473 57.0702 25.7534 57.1687 26.084C57.2667 26.4138 57.316 26.785 57.316 27.197Z" fill="#032886"/>
<path d="M61.3815 28.1945C61.3815 27.9565 61.3046 27.7616 61.1509 27.6101C60.9971 27.4587 60.7716 27.383 60.4747 27.383H59.2198V29.0063H60.4668C60.6482 29.0063 60.7969 28.9803 60.9129 28.928C61.0289 28.8761 61.1219 28.8102 61.1928 28.7308C61.2627 28.6516 61.312 28.5636 61.3396 28.4664C61.3672 28.3699 61.3815 28.279 61.3815 28.1945ZM59.2198 26.6309H60.4443C60.5147 26.6309 60.5916 26.6226 60.6749 26.6047C60.7578 26.5875 60.8346 26.5556 60.9055 26.5081C60.9759 26.4608 61.0335 26.3965 61.0791 26.3147C61.1246 26.2326 61.1472 26.1245 61.1472 25.9908C61.1472 25.812 61.0878 25.6706 60.9695 25.5661C60.8512 25.4619 60.691 25.4096 60.4898 25.4096H59.2198V26.6309ZM61.5099 26.9661C61.6508 27.0207 61.7741 27.0937 61.88 27.1858C61.9859 27.2776 62.0715 27.3807 62.1369 27.4946C62.2022 27.6089 62.2515 27.7307 62.2846 27.8596C62.3168 27.989 62.3334 28.1201 62.3334 28.2542C62.3334 28.4877 62.2869 28.7012 62.1935 28.8947C62.1005 29.0883 61.9744 29.2543 61.816 29.3935C61.6572 29.5325 61.4708 29.6394 61.2567 29.7138C61.0422 29.7882 60.8121 29.8254 60.5653 29.8254H58.7213C58.5602 29.8254 58.4493 29.7917 58.389 29.7247C58.3282 29.658 58.2983 29.5499 58.2983 29.4011V25.0301C58.2983 24.8861 58.3282 24.7794 58.389 24.71C58.4493 24.6403 58.5602 24.6058 58.7213 24.6058L60.4747 24.5982C60.7062 24.5982 60.923 24.6232 61.1246 24.6726C61.3258 24.7222 61.4984 24.7993 61.642 24.9035C61.7856 25.008 61.8989 25.1417 61.9822 25.3056C62.0655 25.4695 62.1069 25.6656 62.1069 25.8938C62.1069 26.1171 62.0503 26.3194 61.9366 26.5007C61.8234 26.6818 61.6812 26.8196 61.5099 26.9139V26.9661Z" fill="#032886"/>
<path d="M64.4265 27.9119H65.8774L65.4848 26.6605L65.1671 25.6033H65.1294L64.8196 26.6384L64.4265 27.9119ZM66.1195 28.6862H64.2L63.8677 29.6987C63.8525 29.7434 63.8308 29.7758 63.8032 29.7958C63.7756 29.8156 63.7314 29.8254 63.6711 29.8254H62.976C62.9203 29.8254 62.8849 29.8095 62.8702 29.777C62.855 29.7448 62.855 29.7088 62.8702 29.6691L64.502 24.9557C64.5273 24.8813 64.5526 24.8216 64.5779 24.7768C64.6028 24.7325 64.6345 24.6974 64.6723 24.6726C64.71 24.6478 64.7542 24.6292 64.8044 24.6168C64.855 24.6044 64.9153 24.5982 64.9858 24.5982H65.3108C65.4668 24.5982 65.5777 24.6217 65.6431 24.6691C65.7089 24.716 65.7669 24.8117 65.8171 24.9557L67.4568 29.6691C67.4719 29.7088 67.4733 29.7448 67.4609 29.777C67.448 29.8095 67.414 29.8254 67.3587 29.8254H66.6636C66.6079 29.8254 66.5637 29.8192 66.5311 29.8068C66.4984 29.7944 66.4721 29.7607 66.4519 29.7061L66.1195 28.6862Z" fill="#032886"/>
<path d="M68.145 24.762C68.145 24.6974 68.1583 24.6554 68.1864 24.6354C68.2135 24.6155 68.2582 24.6058 68.3185 24.6058H68.8851C68.9556 24.6058 69.0034 24.6141 69.0288 24.6318C69.0541 24.6492 69.0665 24.6926 69.0665 24.762V28.4925C69.0665 28.6862 69.1158 28.8226 69.2138 28.902C69.3123 28.9815 69.4467 29.021 69.6184 29.021H71.6434C71.6991 29.021 71.7341 29.0311 71.7492 29.0511C71.7644 29.071 71.7718 29.1082 71.7718 29.1628V29.6842C71.7718 29.7336 71.7644 29.7696 71.7492 29.7917C71.7341 29.8142 71.6991 29.8254 71.6434 29.8254H69.4748C69.2124 29.8254 68.9961 29.7882 68.8248 29.7138C68.6536 29.6394 68.5174 29.5401 68.4165 29.4158C68.3157 29.2916 68.2453 29.1503 68.2053 28.9913C68.1647 28.8327 68.145 28.6662 68.145 28.4925V24.762Z" fill="#032886"/>
<path d="M76.404 28.8575H76.4496L76.7971 27.6881L77.7873 24.71C77.8024 24.6602 77.8236 24.6306 77.8512 24.6203C77.8789 24.6106 77.918 24.6058 77.9686 24.6058H78.6863C78.7268 24.6058 78.7507 24.6168 78.7581 24.6389C78.7659 24.6616 78.7645 24.6876 78.7544 24.7174L77.0843 29.4829C77.0388 29.6167 76.9849 29.7061 76.9219 29.751C76.8588 29.7958 76.7672 29.8204 76.6461 29.8254H76.2378C76.1066 29.8254 76.0077 29.8041 75.9395 29.762C75.8714 29.72 75.8097 29.627 75.7545 29.4829L74.0918 24.7174C74.0817 24.6876 74.0817 24.6616 74.0918 24.6389C74.102 24.6168 74.1268 24.6058 74.1673 24.6058H74.8928C74.948 24.6058 74.9871 24.6141 75.0102 24.6318C75.0327 24.6492 75.0488 24.6775 75.059 24.7174L76.0265 27.6736L76.404 28.8575Z" fill="#032886"/>
<path d="M83.0694 29.7802C83.0491 29.8103 83.0063 29.8254 82.9409 29.8254H80.7871C80.5201 29.8254 80.301 29.7882 80.1298 29.7138C79.9586 29.6394 79.8209 29.5401 79.7178 29.4158C79.6147 29.2916 79.5429 29.1503 79.5024 28.9913C79.4619 28.8327 79.4421 28.6662 79.4421 28.4925V25.9461C79.4421 25.7721 79.466 25.6045 79.5139 25.4435C79.5618 25.2821 79.6395 25.1395 79.7482 25.015C79.8564 24.891 79.9963 24.7918 80.1675 24.7174C80.3388 24.643 80.5455 24.6058 80.7871 24.6058H82.8954C82.9612 24.6058 83.0022 24.6194 83.0201 24.6465C83.0381 24.674 83.0468 24.7174 83.0468 24.7768V25.2457C83.0468 25.3104 83.0381 25.3538 83.0201 25.3765C83.0022 25.3987 82.9612 25.4096 82.8954 25.4096H80.8852C80.6937 25.4096 80.5593 25.4521 80.481 25.5363C80.4028 25.621 80.3636 25.7424 80.3636 25.9013V26.6832H82.6459C82.7117 26.6832 82.7531 26.6956 82.7706 26.7204C82.7886 26.7452 82.7973 26.7927 82.7973 26.8616V27.2714C82.7973 27.3307 82.7886 27.3747 82.7706 27.4016C82.7531 27.4291 82.7117 27.4429 82.6459 27.4429H80.3636V28.5244C80.3636 28.6826 80.4055 28.8025 80.4884 28.8841C80.5717 28.9656 80.7038 29.0063 80.8852 29.0063H82.9409C83.0114 29.0063 83.0556 29.0189 83.0731 29.0441C83.0905 29.0688 83.0993 29.1167 83.0993 29.1867V29.6527C83.0993 29.7076 83.0892 29.7505 83.0694 29.7802Z" fill="#032886"/>
<path d="M84.8678 25.9683V29.6691C84.8678 29.7386 84.8563 29.782 84.8338 29.7992C84.8112 29.8169 84.7643 29.8254 84.6938 29.8254H84.1345C84.0793 29.8254 84.0365 29.8156 84.0061 29.7958C83.9762 29.7758 83.961 29.7336 83.961 29.6691V25.0597C83.961 24.9011 83.9923 24.7856 84.0554 24.7133C84.1184 24.6416 84.233 24.6058 84.3992 24.6058H84.6634C84.7946 24.6058 84.8904 24.6292 84.9507 24.6761C85.0114 24.7236 85.0819 24.809 85.1624 24.9332L86.6663 27.3981L87.3084 28.47H87.3388V24.762C87.3388 24.6974 87.3512 24.6554 87.3766 24.6354C87.4019 24.6155 87.447 24.6058 87.5128 24.6058H88.0721C88.1375 24.6058 88.1826 24.6155 88.2079 24.6354C88.2332 24.6554 88.2456 24.6974 88.2456 24.762V29.3784C88.2456 29.5228 88.2153 29.6332 88.1549 29.7097C88.0942 29.7868 87.9787 29.8254 87.8074 29.8254H87.5427C87.4774 29.8254 87.4217 29.8204 87.3766 29.8103C87.3314 29.8006 87.2909 29.7832 87.2555 29.7584C87.2205 29.7336 87.1864 29.7 87.1538 29.658C87.1211 29.6158 87.0843 29.565 87.0442 29.5051L85.5325 27.0331L84.8982 25.9683H84.8678Z" fill="#032886"/>
<path d="M92.9349 25.3724C92.9169 25.3925 92.8806 25.4022 92.8253 25.4022H91.3896V29.6691C91.3896 29.7386 91.3781 29.782 91.3555 29.7992C91.333 29.8169 91.286 29.8254 91.2156 29.8254H90.6259C90.5656 29.8254 90.5214 29.8156 90.4938 29.7958C90.4662 29.7758 90.4524 29.7336 90.4524 29.6691V25.4022H89.0466C88.9913 25.4022 88.9559 25.3925 88.9412 25.3724C88.926 25.3529 88.9182 25.318 88.9182 25.2684V24.7546C88.9182 24.7 88.926 24.6628 88.9412 24.643C88.9559 24.6232 88.9913 24.6132 89.0466 24.6132H92.8253C92.8806 24.6132 92.9169 24.6232 92.9349 24.643C92.9524 24.6628 92.9611 24.7 92.9611 24.7546V25.2684C92.9611 25.318 92.9524 25.3529 92.9349 25.3724Z" fill="#032886"/>
<path d="M97.7595 29.1029C97.7595 29.2916 97.7171 29.448 97.6315 29.572C97.5454 29.6964 97.3894 29.7808 97.1629 29.8254C97.0672 29.8453 96.965 29.86 96.8568 29.8701C96.7482 29.8798 96.6414 29.8887 96.5355 29.8963C96.4296 29.9037 96.3288 29.9087 96.2335 29.911C96.1378 29.9135 96.0522 29.9149 95.9762 29.9149C95.5532 29.9149 95.1914 29.8762 94.8922 29.7992C94.592 29.7227 94.349 29.5945 94.163 29.4158C93.9761 29.2372 93.8403 28.9989 93.7547 28.7012C93.6691 28.403 93.6263 28.0332 93.6263 27.5916L93.6185 24.7697C93.6185 24.705 93.6337 24.6628 93.664 24.643C93.694 24.6232 93.7368 24.6132 93.7925 24.6132H94.3821C94.4521 24.6132 94.4991 24.6217 94.5216 24.6389C94.5446 24.6566 94.5557 24.7 94.5557 24.7697V27.6063C94.5557 27.8596 94.5746 28.0806 94.6123 28.2693C94.65 28.458 94.7205 28.6144 94.824 28.7384C94.9271 28.8625 95.0708 28.9554 95.2549 29.0175C95.4386 29.0795 95.6788 29.1105 95.9762 29.1105C96.0522 29.1105 96.1714 29.1069 96.3353 29.0993C96.4991 29.0919 96.669 29.071 96.8453 29.0361V24.7697C96.8453 24.705 96.8591 24.6628 96.8872 24.643C96.9148 24.6232 96.959 24.6132 97.0193 24.6132H97.6085C97.6794 24.6132 97.7217 24.6217 97.7374 24.6389C97.7521 24.6566 97.7595 24.7 97.7595 24.7697V29.1029Z" fill="#032886"/>
<path d="M101.833 26.1472C101.833 26.0723 101.821 25.9931 101.799 25.9089C101.776 25.8242 101.734 25.745 101.674 25.6706C101.614 25.5962 101.53 25.5351 101.425 25.4881C101.319 25.4406 101.18 25.4173 101.009 25.4173H99.8378V26.8917H100.956C101.263 26.8917 101.486 26.8196 101.625 26.6756C101.763 26.5317 101.833 26.3554 101.833 26.1472ZM103.004 29.6691C103.014 29.704 103.012 29.7386 102.997 29.7731C102.981 29.808 102.951 29.8254 102.906 29.8254H102.233C102.193 29.8254 102.152 29.8192 102.112 29.8068C102.072 29.7944 102.042 29.7607 102.022 29.7061L101.659 28.3286C101.583 28.0655 101.475 27.8871 101.334 27.7927C101.193 27.6984 100.989 27.6509 100.722 27.6509H99.8304V29.6691C99.8304 29.7386 99.8189 29.782 99.7959 29.7992C99.7734 29.8169 99.7269 29.8254 99.6564 29.8254H99.0668C99.0115 29.8254 98.9687 29.8156 98.9384 29.7958C98.9084 29.7758 98.8932 29.7336 98.8932 29.6691V25.0225C98.8932 24.8786 98.9232 24.7718 98.9839 24.7023C99.0442 24.6327 99.1552 24.5982 99.3163 24.5982H101.1C101.352 24.5982 101.581 24.6341 101.787 24.7064C101.994 24.7782 102.17 24.8813 102.316 25.015C102.463 25.1492 102.574 25.3083 102.653 25.4917C102.73 25.6754 102.77 25.8788 102.77 26.1024C102.77 26.3953 102.698 26.6495 102.555 26.8657C102.411 27.0813 102.223 27.2369 101.991 27.3307V27.3609C102.168 27.4353 102.299 27.5372 102.384 27.666C102.47 27.795 102.538 27.9491 102.588 28.1275L103.004 29.6691Z" fill="#032886"/>
<path d="M107.41 29.7802C107.389 29.8103 107.347 29.8254 107.281 29.8254H105.127C104.86 29.8254 104.641 29.7882 104.47 29.7138C104.299 29.6394 104.162 29.5401 104.058 29.4158C103.955 29.2916 103.883 29.1503 103.843 28.9913C103.803 28.8327 103.782 28.6662 103.782 28.4925V25.9461C103.782 25.7721 103.806 25.6045 103.854 25.4435C103.902 25.2821 103.98 25.1395 104.088 25.015C104.197 24.891 104.337 24.7918 104.508 24.7174C104.679 24.643 104.886 24.6058 105.127 24.6058H107.236C107.301 24.6058 107.343 24.6194 107.36 24.6465C107.378 24.674 107.387 24.7174 107.387 24.7768V25.2457C107.387 25.3104 107.378 25.3538 107.36 25.3765C107.343 25.3987 107.301 25.4096 107.236 25.4096H105.226C105.034 25.4096 104.899 25.4521 104.822 25.5363C104.743 25.621 104.704 25.7424 104.704 25.9013V26.6832H106.987C107.052 26.6832 107.093 26.6956 107.111 26.7204C107.129 26.7452 107.138 26.7927 107.138 26.8616V27.2714C107.138 27.3307 107.129 27.3747 107.111 27.4016C107.093 27.4291 107.052 27.4429 106.987 27.4429H104.704V28.5244C104.704 28.6826 104.746 28.8025 104.829 28.8841C104.912 28.9656 105.044 29.0063 105.226 29.0063H107.281C107.352 29.0063 107.396 29.0189 107.414 29.0441C107.431 29.0688 107.44 29.1167 107.44 29.1867V29.6527C107.44 29.7076 107.43 29.7505 107.41 29.7802Z" fill="#032886"/>
<path d="M108.203 25.9461C108.203 25.7374 108.238 25.5466 108.309 25.3724C108.379 25.1988 108.485 25.0487 108.626 24.922C108.768 24.7954 108.945 24.6974 109.159 24.6279C109.373 24.5583 109.624 24.5237 109.911 24.5237C110.047 24.5237 110.188 24.5313 110.334 24.5459C110.48 24.561 110.626 24.581 110.773 24.6058C110.919 24.6306 111.059 24.6628 111.196 24.7023C111.331 24.7422 111.458 24.7868 111.574 24.8366C111.614 24.8613 111.639 24.8839 111.649 24.9035C111.659 24.9233 111.654 24.9583 111.634 25.008L111.453 25.5141C111.432 25.5688 111.413 25.5983 111.396 25.6033C111.378 25.6086 111.349 25.6059 111.309 25.5962C111.057 25.5115 110.81 25.4482 110.568 25.4061C110.327 25.3641 110.102 25.3428 109.896 25.3428C109.634 25.3428 109.444 25.3963 109.325 25.5026C109.207 25.6098 109.148 25.7348 109.148 25.8788C109.148 25.9683 109.169 26.0489 109.212 26.121C109.255 26.1927 109.324 26.2624 109.42 26.3292C109.516 26.3965 109.635 26.4635 109.779 26.5303C109.922 26.5976 110.097 26.6707 110.304 26.7499C110.52 26.8394 110.727 26.9303 110.924 27.022C111.12 27.1137 111.294 27.2218 111.445 27.3458C111.596 27.4699 111.716 27.6151 111.804 27.7811C111.892 27.9477 111.936 28.1502 111.936 28.3885C111.936 28.6463 111.887 28.8713 111.789 29.0621C111.691 29.2531 111.557 29.4108 111.388 29.5348C111.22 29.6592 111.019 29.7524 110.787 29.8142C110.556 29.8762 110.306 29.9073 110.039 29.9073C109.722 29.9073 109.389 29.8777 109.042 29.8178C108.694 29.7584 108.372 29.6491 108.075 29.4905C108.004 29.4604 107.989 29.4011 108.029 29.3116L108.256 28.8054C108.291 28.7308 108.347 28.7083 108.422 28.7384C108.664 28.8376 108.914 28.9209 109.174 28.9877C109.434 29.0547 109.684 29.0883 109.926 29.0883C110.309 29.0883 110.58 29.0237 110.738 28.8947C110.897 28.7653 110.977 28.6041 110.977 28.4107C110.977 28.3066 110.956 28.2143 110.916 28.1352C110.876 28.0558 110.813 27.9822 110.727 27.9154C110.641 27.8484 110.533 27.7838 110.402 27.7218C110.271 27.6598 110.115 27.5942 109.933 27.5248C109.661 27.4202 109.417 27.3162 109.201 27.2115C108.984 27.1075 108.802 26.9945 108.657 26.8731C108.51 26.7514 108.398 26.615 108.32 26.4635C108.242 26.312 108.203 26.1396 108.203 25.9461Z" fill="#032886"/>
<defs>
<linearGradient id="paint0_linear_3086_20569" x1="39.5577" y1="33.6623" x2="5.8809" y2="7.2751" gradientUnits="userSpaceOnUse">
<stop stop-color="#6ECEBD"/>
<stop offset="1" stop-color="#5A7FC9"/>
</linearGradient>
</defs>
</svg>
